<?xml version="1.0" encoding="UTF-8"?>
<svg id="Layer_1" data-name="Layer 1" xmlns="http://www.w3.org/2000/svg" viewBox="0 0 2094.1 2308.73">
  <defs>
    <style>
      .cls-1 {
        fill: #fff;
        stroke-width: 0px;
      }
    </style>
  </defs>
  <path class="cls-1"
    d="m2092.6,1255.12c.25-30.88-2.53-61.54-5.85-92.22-4.53-41.9-12.02-83.23-21.76-124.18-12.54-52.69-29.32-104.03-50-154.1-12.66-30.66-26.03-60.97-42.24-89.95-4.79-13.19-12.27-25.05-19.07-37.17-56.03-99.87-124.19-190.36-208.49-268.32-30.81-28.5-63.5-54.59-98.12-78.28-32.7-22.38-67.13-41.83-102.05-60.48-52.86-28.22-107.17-53.12-163.96-72.41-23.91-8.12-48.22-14.87-72.74-20.84-10.75-2.62-17.7-9.02-20.19-19.74-5.56-23.94-16.81-45.46-28.57-66.66-20.8-37.52-47.06-70.83-79.25-99.32-26.26-23.24-54.46-43.68-86.21-58.86-34.95-16.71-70.02-17.11-104.49.89-40.36,21.07-76.85,47.46-107.78,81.21-19.27,21.02-34.65,44.47-46.58,70.36-9.66,20.96-16.18,42.94-20.63,65.4-2.07,10.46-7.7,15.1-16.66,18.12-21.72,7.33-43.34,14.94-65.08,22.21-47.34,15.82-93.32,34.98-138.02,57.11-49.55,24.53-96.93,52.76-142.17,84.6-41.65,29.32-81.21,61.24-118.34,96.05-18.44,17.29-36.2,35.36-53.37,54-29.78,32.32-57.3,66.44-82.59,102.36-43.6,61.92-80.25,127.74-110.92,196.98-21.57,48.7-39.56,98.62-52.9,150.17-17.75,68.58-28.32,138.3-32.02,209.04-.38,7.31-.14,14.67-.92,21.93-2.3,21.26-1.83,42.65-.58,63.81,1.14,19.45,3.09,38.95,4.7,58.42,1.83,22.15,4.07,44.25,7.11,66.23,7.47,54.07,21.45,106.62,38.6,158.38,20.73,62.6,46.38,123.06,77.55,181.2,41.26,76.98,92.53,146.67,152.77,209.76,31.49,32.98,64.61,64.29,100.02,93.11,23.44,19.08,47.02,37.98,72.49,54.34,1.57,1.22,3.08,2.54,4.73,3.65,49.21,33.05,100.44,62.49,154.7,86.51,35.21,15.59,71.01,29.6,107.87,40.89,42.84,13.13,86.41,23.17,130.5,30.86,16.59,2.89,33.17,6.44,50.13,6.87,9.88,2.82,20.16,2.83,30.22,4.33,28.91,4.28,58.05,6.07,87.15,6.9,38.52,1.11,77.07.42,115.58-2.85,26.09-2.22,52.12-4.66,78.06-8.17,56.7-7.66,112.18-20.65,166.54-38.37,42.04-13.7,82.83-30.56,122.87-49.34,46.43-21.77,91.25-46.37,134.14-74.48,43.46-28.48,84.41-60.15,122.49-95.55,22.93-21.31,44.82-43.58,65.44-67.13,29.16-33.31,55.6-68.71,80.69-105.13,37.81-54.89,70.97-112.48,97.92-173.42,22.28-50.36,41.54-101.78,54.06-155.73,5.08-21.9,10.71-43.82,16.13-65.7,6.44-26.02,9.77-52.77,12.95-79.43,2.83-23.69,4.88-47.47,5.92-71.31.65-14.91.77-29.84,1.13-44.76,1.84-7.34-.94-14.48-.88-21.75ZM312.36,1925.69c-.05,1.62.13,3.45-1.7,4.33-2.14,1.03-3.94.1-5.32-1.48-3.94-4.5-7.84-9.04-11.65-13.65-31.01-37.46-59.88-76.5-85.71-117.71-28.67-45.74-53.7-93.39-74.56-143.27-21.1-50.45-37.86-102.21-50.18-155.43-6.36-27.48-11.39-55.22-15.26-83.19-3.78-27.29-6.17-54.67-8.24-82.15-2.56-33.96-2.01-67.9-1.27-101.8,1.02-46.81,6.76-93.22,15.35-139.31,10.63-57.02,26.37-112.51,46.99-166.69,13.16-34.56,28.05-68.34,45.02-101.16,27.56-53.29,59.04-104.18,94.37-152.71,15.47-21.25,31.46-42.08,47.97-62.52.81-1.01,1.32-2.3,4.23-2.34,0,3.63,0,6.95,0,10.26,0,433.61,0,867.23,0,1300.84,0,2.67.03,5.33-.05,8Zm980.13-1126.06c23.59-29.54,62.53-39.58,97.09-24.44,22.49,9.85,37.23,27.35,44.51,50.87,4.59,14.84,5.61,29.89,2.34,45.23-4.65,21.84-18.05,36.83-37.21,46.71-13.14,6.77-27.55,9.61-42.8,8.94-23,1.94-40.72-8.36-55.07-25.72-14.65-17.73-22.98-37.82-23.38-61.13-.26-15.46,5.16-28.75,14.51-40.47Zm37.7,174.75c39.94,7.81,76.88.02,109.42-24.71,24.2-18.39,40.43-42.39,44.31-73.15,3.46-27.45-.06-54.22-10.89-79.85-.52-1.22-.92-2.49-1.38-3.74-6.67-11.12-13.57-21.97-23.05-31.11-21.92-21.12-48.39-32.31-78-37.05-24.47-3.92-48.86-1.38-72.91,1.48-2.18-2.9-.46-4.89.47-6.89,15.99-34.55,27.55-70.59,35.22-107.81,3.54-17.19,5.69-34.66,7.41-52.21,2.28-23.29,2.46-46.58.98-69.77-1.91-29.81-6.59-59.33-14.13-88.35-6.61-25.46-14.44-50.48-24.31-74.87-1.06-2.62-2.77-5.23-1.85-8.78,20.92,1.7,40.11,8.76,58.85,17.32,31.86,14.56,59.36,35.48,84.49,59.49,26.72,25.53,52.59,51.85,74.2,82.11,18.1,25.35,32.44,52.66,45.04,80.99,16.83,37.86,28.44,77.36,35.44,118.12,3.48,20.24,6.65,40.62,6.46,61.3,2.15,41.7-.48,83-9.61,123.84-15.62,69.86-45.29,133.34-87.51,190.91-22.01,30.01-49.65,54.54-79.38,76.73-41.31,30.83-85.69,56.13-134.2,73.81-42.32,15.42-85.72,26.01-130.87,29.21-14.61,1.03-29.27.75-43.78,2.04-14.29,1.27-28.57.56-42.82,1.6-8.43.61-8.31.37-10.44-8.01-.84-3.31-.82-6.59-.82-9.9,0-40.31-.78-80.65.36-120.93.56-19.55-.19-39.26,2.42-58.71,3.74-27.82,15.33-52.93,28.72-77.16,17-30.76,39.26-57.59,63.23-83.18,18.24-19.47,38.03-37.23,57.57-55.3,2.44-2.25,4.99-4.44,7.76-6.25,2.86-1.88,5.27-.54,5.19,3.01-.09,3.95-1.24,7.88-1.28,11.82-.35,39.14,9.65,75,34.74,105.72,16.88,20.67,39.02,33.16,64.96,38.23Zm-263.79-79.87c1.33-48.91,17.39-92.1,49.92-129.1,23.21-26.4,51.18-46.24,82.37-61.82,17.26-8.62,34.81-16.67,52.24-24.96,1.77-.84,3.68-2.42,5.57-1.18,2.52,1.64.82,4.06.55,6.29-3.27,27.52-16.81,50.26-34.06,70.88-17.08,20.4-37.38,37.68-56.76,55.86-20.15,18.91-39.81,38.4-58.77,58.5-7.66,8.12-13.01,18.45-19.15,27.94-4,6.19-8.9,11.59-13.6,17.2-1.68,2.01-3.38,3.24-5.93,2.37-2.35-.81-2.35-3-2.37-4.99-.04-5.66-.02-11.32-.02-16.98Zm198.8-358.04c-.51,34.56-15.64,61.27-37.93,84.89-14.93,15.81-33.09,27.7-49.54,41.66-23.54,19.98-47.38,39.61-70.73,59.81-11.58,10.02-21.59,21.65-30.68,34.02-1.77,2.4-3.75,4.65-5.66,6.94-1.13,1.35-2.58,2.21-4.36,1.57-1.9-.68-2.02-2.32-1.86-4.09.73-8.25,1.31-16.51,2.14-24.75,1.96-19.51,4.96-38.84,12.68-57.05,8.4-19.82,20.86-37.01,35.54-52.58,24.61-26.1,54.05-46.11,83.98-65.41,6.97-4.49,14.91-7.31,22.74-10.06,14.29-5.01,28.66-9.82,43.68-14.94Zm-241.09,627.39c-.06,17.31-.08,34.62,0,51.93.02,3.39-.96,6.54-1.48,9.81-1.76,11.06-1.68,11.08-13.13,11.08-23.31,0-46.62-.02-69.93,0-12.14.01-11.12.34-11.17-11.62-.07-14.65.89-29.41-.54-43.93-3.04-30.92-.18-61.85-1.45-86.87,0-26.51-.62-47.18.13-67.8,1.4-38.22,1.8-76.45,1.98-114.69.03-7.25,1.91-14.42,1.71-21.79-.15-5.22,1.18-5.92,5.99-3.97,12.89,5.23,24.2,12.94,32.26,24.28,20.33,28.58,37.51,58.91,47.9,92.64,5.38,17.46,8.63,35.26,10.4,53.59,1.91,19.75-1.18,38.94-2.19,58.39-.84,16.28-.42,32.62-.48,48.93Zm-148.46-404.44c-15.87-15.42-25.39-33.89-31.2-54.74-1.43-5.12-2.75-10.27-3.87-15.47-1.66-7.72-.03-9.51,7.28-7.61,20.04,5.22,39.17,12.74,57.16,23.08,27.9,16.02,52.72,35.93,74.99,59.08,18.36,19.08,30.97,41.5,38.2,66.9,6.48,22.76,10.46,45.97,10.17,69.72-.06,5.19,3.67,10.18.3,16.38-4.77-2.56-6.57-6.59-8.57-10.3-17.99-33.3-43.12-60.5-71.74-84.85-24.29-20.67-49.78-39.89-72.74-62.19Zm363.55-344.79c4.31,22.41-4.31,40.37-14.25,57.83-10.29,18.08-23.79,33.41-40.24,46.31-28.76,22.55-56.8,45.95-82.23,72.32-9.69,10.05-18.88,20.52-27.43,31.55-2.64,3.41-5.23,6.8-8.87,8.8-1.93-.53-2.25-1.74-2.24-3.13.19-19.25-1.01-38.54,2.07-57.69,2.79-17.38,8.71-33.34,20.63-46.63,1.8-2.01,3.46-4.03,4.5-6.51,7.49-17.9,21.32-30.16,36.61-41.1,29.79-21.32,62.22-38.21,94.1-56.03,5.26-2.94,11.13-3.97,17.36-5.7Zm-33.45-124.91c2.75-1.78,5.54-3.5,9.6-6.06,5.81,30.6,1.16,57.21-17.88,80.81-9.86,12.23-20.92,23.29-32.46,33.78-15.73,14.29-31.5,28.54-46.86,43.24-15.38,14.7-30.73,29.42-46.11,44.12-1.43,1.36-2.75,2.91-4.88,3.29-2.73.49-5.07-.13-4.49-3.34,3.4-19.06-.8-38.46,3.02-57.56,2.06-10.29,5.55-19.79,10.81-28.72,16.83-28.57,39.18-51.74,67.33-69.43,20.83-13.08,41.29-26.74,61.92-40.13Zm-45.24-123.74c4.13-3.83,8.24-7.6,13.5-9.78,3.68,2.32,2.72,6.17,3.1,9.09,4.26,32.13,1.08,62.88-17.16,90.89-9.93,15.24-23.2,27.35-36.27,39.55-16.99,15.84-34.7,30.91-52.14,46.25-1.92,1.69-4.14,3.03-7.22,5.26-.83-17.66-2.7-33.77-.51-50.07,3.22-23.97,11.66-45.54,26.98-64.32,12.03-14.75,26.59-26.96,40.32-39.99,9.63-9.14,19.66-17.86,29.41-26.88Zm-174.39-74.76c19.99-28.25,51.29-41.07,85.44-27.07,23.56,9.66,40.33,35.06,39.06,59.85.26,16.18-4.74,30.07-12.63,43.07-9.79,16.12-24.06,28.28-36.99,41.62-2.25,2.32-4.59,2.32-7.26,1.56-14.88-4.25-28.71-10.4-39.54-21.96-17.82-19.03-31.22-40.29-34.72-66.84-1.46-11.03.41-21.43,6.64-30.23Zm-67.68,65.89c.34-2.74.57-5.44,3.52-6.6,3.32-1.31,4.69,1.49,6.39,3.4,26.98,30.26,51.85,62.29,77.54,93.63,14.53,17.72,21.38,38.84,22.61,61.7.32,5.96,2.37,11.77,1.65,15.51-.66,10.26-1.05,18.2-1.73,26.12-.33,3.84-2.46,4.76-5.23,2.11-4.55-4.37-8.59-9.27-13.05-13.73-25.16-25.18-49.99-50.67-72.81-78.01-13.4-16.05-19.94-34.83-21.52-55.73-1.23-16.33.63-32.32,2.64-48.38Zm-31.23,130.29c43.48,26.54,82.1,58.71,114.34,98.35,19.15,23.54,26.32,50.97,26.9,80.6.17,8.51-.49,17.03-.8,26.61-5.35-2.41-8.03-6.26-11.1-9.46-8.27-8.64-16.23-17.57-24.44-26.27-20.36-21.58-43.63-39.88-66.35-58.79-18.38-15.3-34.63-32.06-41.52-55.96-5.37-18.59-7.54-37.56-8.54-57.24,4.51-1.15,8.07.08,11.5,2.18Zm-14.72,133.86c34.29,18.59,66.95,39.64,96.47,65.27,15.34,13.32,30.14,27.05,40.14,45.25,12.09,22.02,17.83,45.68,19.36,70.47.65,10.55.11,21.18.11,31.65-4.13,1.12-5.43-1.53-6.77-3.67-20.34-32.47-49.18-56.49-78.83-79.76-19.09-14.98-38.21-29.96-55.11-47.49-14.8-15.35-26.16-32.75-30.37-54.01-2.23-11.26-3.53-22.65-3.4-34.81,7.32,1.28,12.97,4.16,18.4,7.11Zm-30.33,126.44c41.72,12.14,79.97,30.54,112.58,60.04,22.42,20.28,41.5,43.03,56.84,68.99,10.16,17.19,15.77,35.78,16.96,55.73.24,3.95,1,7.88,1.59,12.43-1.67,4.88-1.61,10.55-1.9,16.18-.1,2.05-.58,4.34-2.59,5.07-2.76,1-4.22-1.3-5.37-3.34-5.23-9.3-11.22-18.1-17.56-26.67-19.45-26.27-44.03-47-70.74-65.42-16.97-11.71-34.68-22.36-50.21-36.1-24.89-22.02-40.05-49.34-45.14-82.19-.75-4.82.78-6.11,5.53-4.73Zm-426.68,805.1c-.38,92.25-.34,184.52-.95,276.77-.54,81.98.53,163.98-.86,245.93-.72,42.61-.76,85.2-1.27,127.8-.07,6.3-.2,12.65-3.1,19.44-5.59-1.22-9.35-4.65-13.31-7.53-17.26-12.55-32.46-27.51-48.47-41.53-2.27-1.99-3.2-4.02-3.1-6.86.1-2.66.02-5.33.02-8,0-453.25.03-906.5-.11-1359.76,0-20.41,6.4-36.71,23.22-49.13,11.47-8.47,21.8-18.49,32.69-27.76,2.75-2.34,5.7-4.46,8.44-6.59,3.21,1.06,3.18,3.47,3.33,5.73.18,2.66.4,5.32.4,7.98-.03,45.27,2.33,90.51,1.74,135.8-.47,36.31-.3,72.65.36,108.96,3.51,192.9,1.77,385.82.96,578.72Zm100.6,722.7c-.59,8.26-1.5,16.44-4.83,24.71-9.32-3.89-15.73-12.11-24.86-15.95-4.01,8.59-10.2,16.17-17.41,21.33,7.21-5.16,13.41-12.74,17.41-21.33-9.42-9.01-20.69-15.55-31.2-23.07-4.91-3.52-6.47-7.38-7.16-13.09-2.25-18.59-1.55-37.21-1.55-55.83-.04-289.29.02-578.59-.05-867.88-.05-204.97-.14-409.93-.6-614.9-.04-17.76,6.52-30.59,20.5-40.75,11.03-8.01,21.56-16.71,32.32-25.09,2.1-1.63,4.15-3.37,6.39-4.78,5.07-3.19,8.28-1.82,8.91,4.01.71,6.59,1.16,13.22,1.81,19.82,1.39,14.2,2.16,28.51,2.19,42.78.28,134.64-.83,269.3.76,403.93,2.68,225.58,1.83,451.16.77,676.73-.68,143.92-.02,287.85-1.09,431.76-.09,11.65-.81,23.3-.04,34.96-2.57,7.37-1.73,15.07-2.28,22.64Zm103.97,77.87c-.48,7.08-4.09,9.2-10.62,5.75-5.24-2.77-10.47-5.73-15.15-9.32-9.23-7.08-19.15-13.13-29.34-18.49-12.39-6.51-17.61-15.74-17.11-29.71.91-24.92.82-49.89,1.15-74.83,0,0,0,0,0,0,2.2-13.56,1.34-27.25,1.34-40.86.13-373.65.1-747.3.09-1120.94,0-52.66.05-105.33-.02-157.99-.04-36.99.86-74.03-.62-110.97-2.25-55.94-1.07-111.87-1.89-167.8-.1-7.08,1.91-11.74,7.82-15.68,17.44-11.64,34.56-23.75,51.87-35.6,5.05-3.46,8.13-2.17,8.53,4.1.66,10.27,2.41,20.43,2.36,30.78-.25,58.33.77,116.68-.66,174.97-2.95,119.94-1.89,239.89-.84,359.8.66,75.61.64,151.21.95,226.81.55,132.32.39,264.64.47,396.97.01,18.99.81,38.07-.58,56.97-2.71,36.95-2.21,73.95-1.04,110.82,2.19,68.94.29,137.88,1.65,206.81.04,1.99.34,3.97.52,5.95,0,0,0,0,0,0,0,1.3,0,2.61.01,3.91,2.17.2,4.12,1.74,6.31,1.84-2.19-.1-4.14-1.64-6.31-1.84-.73,2.7-.73,5.4,0,8.1-.27,19.58-1.88,39.17.93,58.7.28,1.96.16,3.99.16,5.98,0,40.6,0,81.2,0,121.8,0,1.33.07,2.67-.02,3.99Zm-73.13-126.34c.07,0,.14-.02.21-.03-.07,0-.14.02-.21.03Zm.53-.06s.07,0,.1-.01c-.03,0-.07,0-.1.01Zm73.78-76.02c4.5-.1,8.82-1.65,11.65-4.44-2.83,2.79-7.15,4.34-11.65,4.44Zm24.99-12.21c-3.21.04-6.08.71-8.7,2.73,2.62-2.02,5.49-2.68,8.7-2.73Zm76.23,237.7c0,5.32-.27,10.64-.42,15.96-.12,4.13-2.55,5.29-6.02,4.11-6.28-2.15-12.45-4.64-18.67-6.99-13.04-4.95-26.08-9.93-39.13-14.84-8.09-3.05-8.16-3-8.17-12.13-.02-70.57-.01-141.15-.04-211.72,0-3.98-.28-7.97-.44-11.95,0,0,0,0,0,0,.18-4.65.51-9.3.51-13.96.02-516.66.01-1033.33,0-1549.99,0-13.52.03-13.46,12.46-18.43,17.92-7.16,35.79-14.44,53.7-21.61,7.43-2.97,8.14-2.61,8.14,5.02,0,21.66.88,43.4-.62,64.97-1.53,21.96-.57,43.92-1.83,65.81-3.07,53.26-1.47,106.54-1.79,159.81-.25,41.66-.89,83.36.52,124.98,2.52,74.6.59,149.22,1.87,223.81,3.48,202.93.56,405.88,1.49,608.81.3,65.33.61,130.67-.25,196-.34,25.59-1.31,51.2-1.33,76.82,0,2.65.33,5.3.51,7.95h0c-.15,3.98-.44,7.97-.44,11.95-.03,98.54-.02,197.07-.06,295.61Zm1.26-307.56c.74-.02,1.43-.1,2.06-.25-.63.15-1.32.23-2.06.25Zm4.72-1.62c.29-.27.54-.58.77-.93-.23.35-.48.66-.77.93Zm11.12-17.17c2.91.02,5.62-1.55,8.45-1.45-2.83-.1-5.54,1.47-8.45,1.45Zm136.56-124.25c-.03,165.33-.04,330.66-.06,495.99q0,13.14-12.7,10.8c-34.58-6.46-69.12-13.21-103.78-19.19-6.02-1.04-7.57-3.7-8.52-8.68-.7-3.67-.59-7.3-.59-10.94-.16-111.33-.3-222.65-.46-333.98,0-3.66-.28-7.31-.44-10.97,0,0,0,0,0,0,.18-3.65.51-7.3.51-10.95.02-91.31,1.38-182.64-.41-273.91-1.54-78.59-.42-157.16-1.5-235.74-.4-29.31-1.02-58.7.54-87.95,2.68-50.27,2.11-100.57,1.02-150.77-2.24-103.24-.97-206.48-1.63-309.71-.13-19.62,2.29-39.29,1.5-58.76-.86-21.18.18-42.52-2.98-63.63-.73-4.9-.13-9.99-.43-14.97-3.95-65.55-2.27-131.16-1.37-196.72.29-21.43,2.33-42.99,4.88-64.44,1.84-15.44,3.37-31,4.27-46.55.4-6.94,2.63-10.95,9.64-12.97,7.96-2.29,15.56-5.82,23.34-8.75,2.17-.82,4.41-1.5,6.66-2.1,1.96-.52,4.08-.83,5.57.93,1.61,1.9.4,3.63-.64,5.41-4.88,8.32-9.93,16.56-14.49,25.06-15.49,28.91-27.54,58.85-30.26,92.12-1.11,13.62-.55,27.27-1.88,40.79-2.48,25.26-1.88,50.51-1.45,75.78.62,36.44,6.82,71.97,18.22,106.57,16.82,51.05,42.17,97.61,74.41,140.5,5.43,7.23,12.34,13.03,19.26,18.78,3.32,2.76,6.47,5.73,9.77,8.53,3.03,2.57,4.29,5.75,3.99,9.72-.2,2.65-.04,5.33-.04,7.99,0,285.58-.02,571.16,0,856.74,0,4.33.2,8.65.3,12.98-.09,4.33-.25,8.66-.25,12.99Zm148.35,501.86c-.1,9.22-.12,9.25-9.39,9.34-19.6.18-39.2.33-58.8.49-5.98-.18-11.96-.52-17.94-.47-3.95.03-5.58-1.27-6.59-5.42-2.18-8.92-1.18-17.9-1.57-26.83-2.27-52.2-1.1-104.46-2.35-156.66-2.66-110.84-.95-221.69-1.97-332.52-.12-12.94-1.04-25.91-.98-38.88-2.61-.05-5.29-.21-7.68.1,2.39-.31,5.08-.15,7.69-.1,1.64-3.82,1.22-7.85,1.23-11.83.11-74.28-.72-148.57.71-222.82.7-36.24.65-72.49,1.69-108.72.21-7.26,2.16-14.43,1.68-21.79-.22-3.29,1.55-4.89,4.85-4.83,1.33.02,2.66-.05,4-.05,25.65,0,51.3-.05,76.94.03,8.22.02,8.4.17,8.4,8.34-.05,65.28-.2,130.57-.25,195.85-.02,21.98.15,43.96.24,65.94,0,0,0,0,0,0-.08,3.33-.23,6.65-.22,9.98.09,96.85.25,193.7.3,290.55.05,94.86-.01,189.72.01,284.57,0,4.31.34,8.62.52,12.94-.17,17.61-.32,35.21-.5,52.82Zm1009.56-870.18c-3.62,46.4-10.38,92.32-20.74,137.71-15.47,67.75-39.62,132.38-69.46,195.02-29.58,62.08-65.04,120.59-105.56,176.12-33.65,46.11-70.99,88.97-112.42,128.16-90.38,85.47-193.55,150.39-310.96,192.3-52.08,18.59-105.17,33.38-159.56,43.28-31.34,5.71-62.92,10.06-94.67,13.01-26.75,2.48-53.5,4.91-80.25,7.38-15.84,1.46-15.79,1.47-15.85-14.7-.1-30.32-.26-60.64-.4-90.96.14-3.65.43-7.3.41-10.95-.32-57.92.34-115.83-.48-173.75-.64-44.94-.2-89.89-.12-134.83.14-77.56.38-155.12.59-232.68,0-2.33-.24-4.72.2-6.97,2.11-10.9,1.17-21.84.74-32.79.36-24.96.22-49.94,1.24-74.87.97-23.59,1.32-47.18,1.75-70.77.09-5,2.12-6.16,6.62-6.15,10.98.04,21.97-.71,32.94-.45,34.62.8,69.17-1.78,103.78-1.7,14.3.03,28.64-.39,42.89.39,51.23,2.81,100.58,13.62,147.06,36.05,35.86,17.31,68.93,38.82,98.7,65.3,7.45,6.63,13.66,14.56,21.59,20.7-.43-3.43-.06-6.29,1.33-8.43-1.39,2.13-1.75,5-1.33,8.43,1.9,3.96,5,7.02,7.78,10.31,19.39,22.97,35.7,47.91,47.39,75.66,20.12,47.76,30.86,97.16,27.54,149.43-1.97,30.95-8.95,60.41-20.73,88.86-12.33,29.8-29.95,56.38-50.94,80.7-21.09,24.44-45.66,44.64-74.99,58.57-35.91,17.06-73.59,21.21-112.86,16.42-40.81-4.98-76.58-21.37-108.72-46.04-12.88-9.89-23.25-22.59-32.71-35.94-9.84-13.88-16.62-29.21-22.53-45.01-8.35-22.34-12.1-45.66-12.41-69.3-.16-11.8,1.31-23.8,3.42-35.62,5.87-32.77,20.29-61.05,43.58-84.74,21.91-22.28,48.11-37.8,77.8-47.1,17.78-5.57,36.12-10.15,54.91-8.23,39.73,4.05,71.68,23.12,97.33,53.17,27.88,32.66,34.43,70.77,25.64,111.5-6.63,30.7-22.28,56.18-51.24,71.48-18.01,9.52-37.07,13.94-57.56,13.76-52.35-.47-84.59-46.08-74.46-93.49,7.02-32.85,35.26-48.86,63.83-41.72-7.89,3.32-17.21,2.59-24.16,8.57,0,0,0,0,0,0-.65.66-1.3,1.32-1.96,1.98-4.7-.23-7.75,2.26-10,6.06,0,0,0,0,0,0-.66.67-1.32,1.34-1.98,2.01,0,0,0,0,0,0-.65.65-1.31,1.31-1.97,1.96.27.27.55.54.83.79h0c-.29-.25-.57-.51-.83-.79-3.82,2.24-6.3,5.29-6.07,9.99l.05.04s-.05-.04-.04-.04c-.66.65-1.32,1.3-1.98,1.96.26.26.54.5.84.73h0c-.29-.22-.57-.47-.84-.73-9.59,16.18-10.59,32.35,0,48.53,0,0,0,0,0,0,.66.65,1.32,1.31,1.97,1.96.03,2.83.24,5.55,3.87,6.09l.33-.27c-.12.1-.33.27-.32.27.25,1.57.61,3.08,2.19,3.91,0,0,0,0,0,0,.67.66,1.34,1.32,2,1.99,0,0,0,0,0,0,.65.65,1.31,1.31,1.96,1.97.27-.27.53-.54.78-.83h0c-.25.29-.51.57-.78.83.82,1.59,2.32,1.95,3.9,2.2.54,3.63,3.26,3.84,6.09,3.87l.26-.29c-.37-.53-.77-1.01-1.21-1.43.44.43.84.9,1.21,1.43,0,0-.26.29-.25.29.65.66,1.3,1.32,1.95,1.98.27-.27.51-.56.75-.86,0,0,0,0,0,0-.23.3-.48.59-.75.86,16.18,10.3,32.36,9.53,48.54,0,0,0,0,0,0,0,.65-.66,1.31-1.32,1.96-1.98h0c7.11-.21,10.49-5.29,13.76-10.53,7.12-5,13.01-11.24,18.63-17.83,25.08-29.41,18.07-67.65-1.24-88.75-22.97-25.1-52.58-33.49-85.93-29.47-42.1,5.08-76.71,41.95-85.46,78.33-4.19,17.43-3.29,35.05.24,52.45,7.91,39.02,28.76,68.37,65.79,84.63,32.66,14.34,66.89,17.36,101.57,9.79,46.69-10.2,80.98-37.36,102.95-79.69,23.46-45.21,28.88-92.14,11.43-140.72-10.99-30.6-28.71-56.7-52.69-78.79-17.42-16.05-37-28.12-59.24-36.04-36.58-13.04-73.99-15.45-111.93-7.78-64.59,13.05-114.05,48.31-147.79,104.54-27.58,45.96-37.16,96.14-30.79,149.55,3.72,31.2,13.03,60.56,28.49,87.55,15.65,27.32,34.98,51.95,58.74,73.18,22.65,20.23,47.89,35.52,76.19,45.97,46.88,17.31,94.35,20.7,142.68,6.04,32.03-9.72,62.35-23.12,90.59-41.01,45.67-28.93,81.32-67.1,106.03-115.45,16.5-32.28,27.23-66.34,33.49-101.9,6.07-34.53,8.08-69.31,3.78-104.15-5.56-45.06-19.56-87.47-42.12-126.94-16.51-28.88-36.44-55.23-59.55-79.16-18.91-21.7-40.83-39.96-64.42-56.29-52.14-36.11-110.21-58.56-171.38-73.61-31.97-7.87-64.39-12.78-97.35-14.75-15.65-.94-31.24-1.16-46.84-.93-12.9.19-25.78,1.86-38.67,2.86-1.99.15-3.98.35-5.97.35-17.99.03-35.99.07-53.98,0-7.7-.03-8.02-.35-8.91-7.47-1.15-9.22-1.79-18.53-3.41-27.66-.69-3.91,1.19-4.74,3.76-5.57,1.55-.5,3.27-.54,4.92-.64,44.1-2.6,87.97-7.39,131.52-14.64,51.62-8.59,102.19-21.14,149.94-43.28,52.27-24.23,100.19-55.04,142.99-93.77,71.6-64.81,118.43-144.58,144.16-237.21,9.27-33.36,15.17-67.28,18.29-101.8,2.86-31.61,3.05-63.27.88-94.74-4.98-72.04-22.75-140.88-56.72-205.06-10.44-19.72-22.15-38.68-35.03-56.92-7.48-10.59-14.23-21.65-19.65-33.84,3.47-2.4,5.76.13,8.05,1.54,25.22,15.58,49.55,32.49,73.16,50.39,30.23,22.92,59.03,47.5,86.84,73.37,67.33,62.65,121.68,135.48,169.61,213.45,15.86,25.8,30.64,52.23,44.19,79.33,1.03,2.06,2.36,3.98,3.55,5.97,11.49,25.04,23.03,50.05,33.08,75.73,20.61,52.68,35.9,106.9,47.82,162.13,8.12,37.62,14.08,75.55,17.61,113.87,3.04,33.07,4.32,66.21,3.81,99.43-.16,10.58-2.74,21.1-.92,31.74-1,11.56-2.09,23.11-3,34.68Zm-509.74,154.3c.34-.35.7-.68,1.12-.97-.42.29-.78.63-1.12.97Zm-145.94,335.1c-.06-.07-.13-.15-.13-.15l.13.15Zm-68.06-14.12c-.29-1.25-.76-2.38-1.42-3.38.66,1,1.13,2.13,1.42,3.38h0Zm-3.99-6.01c-.47-.81-.95-1.63-1.42-2.44h0c.47.81.95,1.63,1.42,2.44h0Zm0-51.94s-.16-.14-.25-.21l.25.21c1.87-1.62,3.34-3.53,4.58-5.6-1.24,2.06-2.71,3.97-4.58,5.6Zm19.98-19.98c.81-.47,1.63-.95,2.44-1.42h0c-.82.47-1.63.95-2.44,1.42h0Zm60.29,83.5h0s0,0,0,0c-.45,2-1.7,3.18-3.15,4.18,1.45-1,2.7-2.19,3.15-4.18Zm8.23-48.37s0-.05,0-.08c0,.03,0,.05,0,.08Zm-2.53-14.26c.22.62.43,1.24.62,1.87-.19-.63-.4-1.25-.62-1.87Zm-23.51-25.35c-4.2-3.55-9.03-5.47-14.33-6.15,5.3.68,10.12,2.6,14.33,6.15,11.17,6.02,18.57,13.82,22.54,22.91-3.97-9.09-11.37-16.88-22.54-22.9Zm12.66,93.45c-.61.39-1.21.79-1.75,1.25.54-.46,1.14-.86,1.75-1.25Z" />
  <path class="cls-1"
    d="m1802.47,1236.75c-6.26-1.62-12.41-1.82-18.67.14-22.68,7.08-37.8,34.72-31.35,57.49,5.31,18.74,22.12,32.79,39.38,32.91,22.58.16,43.72-19.33,45.95-43.23,1.88-20.22-13.04-41.54-35.3-47.31Z" />
</svg>